<?xml version="1.0" standalone="no"?>
<!DOCTYPE svg PUBLIC "-//W3C//DTD SVG 20010904//EN"
 "http://www.w3.org/TR/2001/REC-SVG-20010904/DTD/svg10.dtd">
<svg version="1.0" xmlns="http://www.w3.org/2000/svg"
 width="1024.000000pt" height="1024.000000pt" viewBox="0 0 1024.000000 1024.000000"
 preserveAspectRatio="xMidYMid meet">
<metadata>
Created by potrace 1.14, written by Peter Selinger 2001-2017
</metadata>
<g transform="translate(0.000000,1024.000000) scale(0.100000,-0.100000)"
fill="#000000" stroke="none">
<path d="M4979 10036 c-2 -2 -67 -6 -144 -10 -77 -3 -156 -8 -175 -10 -19 -3
-66 -7 -105 -11 -38 -3 -81 -8 -95 -10 -14 -2 -47 -7 -75 -10 -85 -10 -264
-45 -390 -76 -720 -179 -1325 -459 -1837 -850 -184 -140 -399 -339 -543 -500
-28 -31 -66 -73 -85 -94 -64 -72 -257 -337 -326 -448 -145 -232 -269 -478
-364 -722 -35 -88 -66 -169 -71 -180 -25 -65 -117 -375 -135 -455 -4 -19 -9
-39 -10 -45 -8 -25 -43 -183 -48 -210 -2 -16 -11 -66 -20 -110 -17 -92 -22
-122 -31 -188 -4 -27 -8 -58 -10 -70 -3 -11 -7 -43 -10 -71 -3 -28 -7 -64 -9
-81 -4 -32 -16 -152 -21 -220 -24 -316 -25 -922 -1 -1180 2 -16 6 -66 10 -110
7 -77 11 -119 21 -195 2 -19 7 -60 10 -90 6 -50 18 -135 29 -200 3 -14 7 -42
10 -63 20 -131 91 -442 137 -602 43 -145 130 -393 168 -478 10 -23 33 -76 51
-117 92 -214 293 -561 417 -720 275 -354 536 -603 883 -841 207 -143 541 -318
795 -418 88 -35 169 -67 180 -72 46 -20 409 -131 465 -143 14 -3 50 -12 80
-21 30 -8 71 -18 90 -21 19 -3 38 -8 41 -10 3 -2 19 -6 35 -8 16 -3 40 -8 54
-11 23 -5 84 -17 150 -30 14 -3 36 -7 50 -10 29 -6 18 -4 290 -44 113 -17 237
-33 276 -36 38 -3 85 -7 102 -10 18 -2 74 -7 125 -10 50 -4 108 -8 127 -10
265 -24 1076 -24 1470 0 103 6 238 17 260 20 14 2 59 6 100 10 41 3 91 8 110
10 19 2 60 7 90 10 30 4 66 8 80 10 14 2 45 7 70 10 25 3 52 8 60 10 8 2 35 7
60 10 125 17 279 48 455 91 141 35 353 97 390 114 11 5 58 23 105 40 129 46
412 190 531 269 388 260 657 603 813 1039 24 68 79 264 90 322 3 14 10 50 16
80 25 128 41 253 55 445 7 92 7 491 0 580 -16 207 -28 307 -56 455 -116 607
-416 1055 -934 1393 -121 78 -313 182 -445 239 -19 9 -51 23 -72 32 -223 99
-744 266 -1004 321 -12 3 -77 18 -145 34 -68 16 -160 37 -204 46 -44 9 -87 18
-95 20 -8 2 -71 15 -140 29 -69 14 -156 33 -195 41 -38 9 -81 17 -95 20 -33 6
-49 10 -155 34 -49 11 -101 22 -115 24 -14 3 -55 12 -91 21 -37 8 -78 17 -90
20 -13 2 -63 13 -111 25 -49 12 -127 30 -175 41 -49 12 -133 32 -188 46 -55
15 -104 27 -110 28 -79 18 -375 107 -487 147 -204 71 -337 134 -458 216 -181
121 -278 273 -316 495 -3 18 -7 116 -10 218 -4 203 9 293 61 431 120 314 435
558 885 688 115 33 269 68 340 76 25 3 76 10 114 16 135 19 244 24 501 24 224
0 489 -10 505 -20 3 -2 32 -6 66 -9 133 -13 269 -35 459 -72 72 -15 140 -28
152 -30 12 -2 34 -9 48 -14 14 -5 25 -7 25 -5 0 2 11 0 25 -5 14 -5 36 -12 48
-14 104 -22 445 -134 611 -202 152 -63 357 -169 501 -259 132 -82 167 -94 234
-76 133 35 257 207 356 491 35 100 77 267 90 355 3 23 7 52 10 65 7 37 17 177
18 261 4 299 -78 539 -213 624 -40 25 -89 40 -235 74 -86 19 -402 86 -455 96
-14 3 -36 7 -50 10 -43 9 -72 15 -165 30 -49 9 -135 24 -190 35 -55 10 -120
21 -145 25 -25 3 -52 8 -60 10 -8 2 -37 6 -65 10 -27 3 -75 10 -105 15 -92 15
-308 46 -390 55 -25 3 -61 7 -80 10 -44 7 -98 13 -175 20 -33 3 -77 8 -97 11
-20 3 -54 7 -75 9 -21 1 -65 6 -98 9 -58 6 -85 9 -245 21 -41 3 -93 8 -115 10
-22 2 -94 7 -160 11 -66 4 -140 8 -165 10 -60 5 -916 14 -921 10z m-2512
-3629 c15 -23 51 -98 80 -167 122 -286 211 -428 373 -590 285 -286 671 -494
1305 -705 247 -83 680 -207 805 -231 14 -3 59 -14 100 -26 41 -11 86 -22 100
-24 14 -3 52 -11 85 -19 67 -17 311 -72 485 -111 63 -14 171 -39 240 -55 146
-36 157 -38 189 -45 33 -7 228 -58 386 -101 72 -19 144 -39 160 -43 146 -38
451 -143 615 -212 228 -96 405 -209 527 -338 249 -261 337 -755 206 -1147
-172 -515 -728 -915 -1491 -1074 -54 -11 -115 -22 -137 -25 -22 -3 -51 -7 -65
-10 -90 -16 -213 -28 -385 -39 -153 -10 -463 -4 -620 10 -33 3 -85 8 -115 11
-30 2 -68 6 -85 9 -16 2 -52 7 -80 10 -44 6 -76 10 -191 30 -17 2 -66 12 -110
20 -43 9 -90 18 -104 21 -291 57 -657 196 -930 352 -122 69 -331 216 -445 312
-411 346 -759 853 -944 1375 -18 50 -36 99 -41 110 -14 34 -84 281 -95 332 -2
10 -15 74 -28 143 -14 69 -29 145 -33 170 -3 25 -8 52 -9 60 -1 8 -6 44 -10
80 -3 36 -8 79 -11 95 -26 196 -26 736 1 965 2 19 7 58 10 85 9 81 14 117 20
160 4 22 9 54 11 70 2 17 6 41 9 55 3 14 7 41 10 60 3 19 13 69 22 110 8 41
17 87 19 102 2 14 13 61 24 103 49 184 84 211 147 112z"/>
</g>
</svg>
