<?xml version="1.0" encoding="UTF-8"?>
<svg fill="none" stroke-linecap="square" stroke-miterlimit="10" viewBox="0 0 400 400" xmlns="http://www.w3.org/2000/svg">
    <clipPath id="b">
        <path d="M0 0h400v400H0V0z" />
    </clipPath>
    <g clip-path="url(#b)">
        <path d="M0 0h400v400H0z" fill="#000" fill-opacity="0" fill-rule="evenodd" />
        <defs>
            <linearGradient id="a" x1="1.633" x2="398.69" y1="399.11" y2="399.11" gradientUnits="userSpaceOnUse">
                <stop stop-color="#0b5394" offset="0" />
                <stop stop-color="#6fa8dc" offset="1" />
            </linearGradient>
        </defs>
        <path
            d="m157.21 5.08c-105.06 22.31-159.77 96.016-155.32 208.84 4.687 124.22 79.252 185.42 225.13 185.18 122.92-0.24 171.68-32.592 171.68-113.39 0-66.615-31.684-95.857-124.12-114.02-106.01-20.876-117.37-26.692-117.37-59.681 0.239-63.505 101.96-52.987 158.66-21.674 51.299 25.339 72.342-26.613 58.445-41.593-51.696-52.59-175.02-52.431-217.11-43.665zm-65.671 152.43c12.865 30.518 45.582 47.013 128.09 64.303 77.264 16.335 99.341 26.136 106.49 48.048 18.105 55.299-52.491 92.271-142.14 74.342-80.52-15.857-124.12-91.873-105.3-182.95 3.97-20 5.956-20.479 12.865-3.746z"
            fill="url(#a)"
            fill-rule="evenodd"
        />
    </g>
</svg>
