<svg xmlns="http://www.w3.org/2000/svg" fill="none" stroke-linecap="square" stroke-miterlimit="10" viewBox="0 0 400 400"><clipPath id="a"><path d="M0 0h400v400H0V0z"/></clipPath><g clip-path="url(#a)"><path d="M0 0h400v400H0z"/><defs><linearGradient id="b" x1="0" x2="400" y1="400" y2="400" gradientUnits="userSpaceOnUse" spreadMethod="pad"><stop offset="0" stop-color="#05d"/><stop offset="1" stop-color="#09d"/></linearGradient></defs><path fill="url(#b)" fill-rule="evenodd" d="M157 5C52 27-3 101 2 214c5 124 79 185 225 185 123 0 172-32 172-113 0-67-32-96-124-114-106-21-118-27-118-60 0-63 102-53 159-22 51 26 72-26 58-41C323-4 199-4 157 5zM92 158c12 30 45 47 128 64 77 16 99 26 106 48 18 55-52 92-142 74-81-16-124-92-105-183 4-20 6-20 13-3z"/></g></svg>